# xmcd
#
# Track frame offsets: 
#        150
#        24891
#        40929
#        73026
#        96742
#        119047
#        142193
#        163627
#        225070
#        255355
#        294312
#        306320
#
# Disc length: 4457 seconds
#
# Revision: 0
# Processed by: cddbd v1.5.2PL0 Copyright (c) Steve Scherf et al.
# Submitted via: ExactAudioCopyFreeDBPlugin 1.0
#
DISCID=a611670c
DTITLE=J. B. Hutto - Chicago Slide - The Final Shows 1982 - Disc 1
DYEAR=2015
DGENRE=Blues
TTITLE0=High and Lonesome
TTITLE1=Boogie Shuffle #1
TTITLE2=Help Wanted
TTITLE3=Hide and Seek
TTITLE4=I Feel So Good
TTITLE5=Early In The Morning
TTITLE6=JB's Crawl
TTITLE7=Say Goodbye
TTITLE8=Summertime
TTITLE9=Married Woman Blues
TTITLE10=Too Much Alcohol
TTITLE11=Hip Shakin'
EXTD=
EXTT0=
EXTT1=
EXTT2=
EXTT3=
EXTT4=
EXTT5=
EXTT6=
EXTT7=
EXTT8=
EXTT9=
EXTT10=
EXTT11=
PLAYORDER=
